<svg id="svg" version="1.1" viewBox="0 0 300 272.09302325581393" width="300" height="272.09302325581393" xmlns="http://www.w3.org/2000/svg"><svg xmlns="http://www.w3.org/2000/svg"><defs><clipPath id="clip-1"><rect x="0" y="0" transform="scale(0.14648,0.14652)" width="2048" height="1857" fill="none"/></clipPath></defs><g clip-path="url(#clip-1)" fill="none" fill-rule="nonzero" stroke="none" stroke-width="1" stroke-linecap="butt" stroke-linejoin="miter" stroke-miterlimit="10" stroke-dasharray="" stroke-dashoffset="0" font-family="none" font-weight="none" font-size="none" text-anchor="none" style="mix-blend-mode: normal"><path d="M0,0h300v272.09302h-300z" fill="#ffffff"/><path d="M147.76318,7.09493c6.59326,-0.83815 14.98242,3.12215 19.16602,8.22697c9.30322,11.35128 7.04443,29.53403 -6.20215,36.80186c-1.91455,1.05086 -4.45312,1.91652 -5.96777,3.52637c-3.26807,3.47259 -1.80176,8.84017 -3.89648,12.82764c-0.50537,0.96236 -1.5249,2.44136 -2.36572,3.1438c-4.68164,3.90674 -10.46118,6.7065 -15.8751,9.45483l-9.28857,4.78983l-61.18125,31.36381c-7.78022,3.95128 -15.51562,7.99019 -23.20459,12.11613c-5.87534,3.14643 -12.18486,6.23162 -17.34302,10.43595c-3.15674,2.5728 -5.3896,5.57373 -5.75786,9.74304c-0.28154,3.05793 0.66621,6.10268 2.63364,8.4617c2.88179,3.41691 8.00039,4.85284 12.43462,5.09753c15.63984,0.86302 35.41538,-3.06379 47.88281,-13.02149c0.90557,-0.82053 3.60234,-3.10775 3.51196,-4.47071c-0.17329,-2.61016 -3.6438,-4.53415 -5.90317,-4.52302c-7.76895,0.0381 -13.17773,7.11823 -17.51367,12.7198c-0.88711,1.14581 -1.29478,2.70481 -2.27402,3.63084l-0.26162,-0.04542c-1.40259,-1.58538 3.38774,-10.30642 4.49648,-12.08272c3.02695,-4.85181 8.29453,-11.1123 14.2144,-12.23994c13.7751,-2.62379 14.94141,10.43243 8.80474,19.46542c-6.35244,9.15915 -18.8625,13.83616 -29.07261,16.11898c0.22397,3.79055 -1.29478,5.98106 -2.83154,9.31739c-0.71602,1.55461 -1.28906,3.03156 -1.91191,4.61108c-4.50894,11.01559 -7.45312,26.62907 1.6998,36.1809c14.57915,15.21347 39.44019,2.8191 54.37295,-5.3349c5.53198,-3.0213 10.91865,-6.07044 15.49658,-10.29616c-0.81445,-0.90258 -1.7042,-1.47988 -2.79551,-1.98978c-4.30576,-2.01029 -28.05513,-6.76496 -29.22759,-8.39283c-0.19717,-0.274 -0.15249,-0.7121 -0.11089,-1.03738c0.26997,-2.10553 1.84409,-7.78916 3.35845,-9.15182c1.66875,-1.50332 8.36587,-2.36048 10.8835,-3.11068c2.36338,-0.70331 7.04268,-2.69456 8.98755,-4.21693c0.70298,-0.54946 1.06597,-0.95826 1.15708,-1.86231c0.00498,-0.04982 0.0085,-0.1011 0.01289,-0.15092c-0.72539,-2.36048 -2.82437,-5.49461 -4.1644,-7.71297c-1.11855,-1.833 -2.15566,-3.71289 -3.10854,-5.63674c-0.7002,-1.40222 -1.8769,-3.55465 -2.34243,-4.9642c-1.28979,-3.9063 -2.30215,-5.9752 -4.71914,-9.3001c0.27334,-2.84035 1.40288,-8.60177 2.26582,-11.30351c2.50356,1.6245 11.39238,9.61835 13.00781,12.84376c0.15747,0.31502 -0.05186,0.59781 -0.20742,0.83518c-1.13745,0.52309 -3.18794,-0.1392 -4.31382,-0.54067c2.46416,6.6961 7.92114,11.07274 8.50767,19.10073c0.62607,8.56866 -0.89766,13.09768 -6.17637,19.62528c4.67915,1.00808 12.62549,2.88797 14.36191,8.03678c1.41035,4.18176 -0.41367,10.45294 -2.19683,14.34752c-0.82368,1.7993 -2.18657,3.74952 -3.59663,5.15175c-3.33003,3.266 -7.5,6.01476 -11.41421,8.50272c-8.4186,5.35102 -17.00288,10.2903 -26.45405,13.58707c-9.22515,3.21911 -19.26826,4.61694 -28.37725,0.14799c-5.87637,-2.87624 -10.46777,-8.24924 -12.42949,-14.51602c-5.48687,-17.52707 2.33438,-36.84904 9.97793,-52.37168c-1.7168,0.39561 -4.74199,0.79855 -6.5168,1.00808c-9.57319,1.10478 -19.67739,1.62787 -28.33901,-3.28797c-11.42963,-6.4851 -11.95148,-21.69975 -2.97056,-30.4961c5.10015,-4.99541 11.76812,-8.38214 18.03721,-11.70015c4.14946,-2.20297 8.31592,-4.37386 12.49922,-6.51206c7.57705,-3.97473 15.17505,-7.9096 22.79355,-11.80432l50.29731,-25.98628l14.41157,-7.36292c2.85352,-1.46069 6.92373,-3.53193 9.53071,-5.32757c3.46304,-2.38539 2.95166,-6.90152 3.65522,-10.44166c0.34102,-1.69644 1.00591,-3.31098 1.95806,-4.7554c3.20508,-4.87408 7.09277,-5.0546 11.27344,-8.29261c9.15967,-7.09347 7.3418,-21.73682 -2.32324,-27.38616c-3.60059,-2.10811 -7.89404,-2.68972 -11.92632,-1.61556c-5.98418,1.63593 -10.42075,6.63544 -11.9335,12.67877c-0.40869,1.63256 -0.0627,4.03744 -1.00767,5.56802c-0.60513,0.95987 -1.56753,1.6393 -2.67451,1.8878c-1.0437,0.22696 -2.29687,0.06022 -3.16992,-0.58155c-1.87925,-1.39607 -1.19268,-3.92784 -0.94351,-5.87073c1.55156,-12.10338 10.48433,-20.61489 22.59976,-21.66136z" fill="#5b2d44"/><path d="M160.87939,71.82772c1.38867,-0.09905 2.31006,0.22945 3.56543,0.8069c6.32666,2.91185 12.53906,6.22971 18.73828,9.40721l35.87988,18.53984l34.80029,18.02012c7.771,4.05912 15.65186,8.00718 23.04053,12.74954c5.40381,3.46629 10.36377,8.14711 11.48877,14.8287c2.50928,14.91896 -7.21143,22.24511 -20.19287,24.87812c5.18262,5.65139 5.69092,9.90348 5.08008,17.37175c-0.65918,8.06902 -5.58252,12.32111 -11.60742,16.90581c-3.32666,2.53192 -6.70312,4.9305 -10.12207,7.3364c-3.92871,2.76342 -7.91016,5.45358 -11.94141,8.06755c-3.16113,2.06304 -6.24756,3.90337 -9.50684,5.77593c-5.94727,3.41691 -14.90771,6.0807 -19.49707,-0.85569c-4.25244,-6.42796 -2.94727,-13.78048 -1.58789,-20.8546c-7.23486,7.34812 -15.59326,13.17241 -24.20068,18.82087c-4.15283,2.72386 -10.96729,6.84995 -15.57422,8.70346c-2.15332,0.8469 -4.35937,1.55168 -6.60498,2.10993c-9.12891,2.32678 -18.65771,3.77736 -27.81343,6.07191c-1.05703,0.26521 -2.79434,0.67694 -3.8584,0.44543l-0.13359,-0.21978c0.14692,-1.80663 7.19238,-4.56272 8.99414,-5.38618c3.42554,-1.55021 6.82251,-3.16343 10.18872,-4.83819c20.58984,-10.15257 41.29395,-21.06267 58.51611,-36.47395c1.69336,-1.51651 2.91357,-2.87038 4.34473,-4.61694c0.35742,-0.43664 1.05762,-1.35387 0.64014,-1.92238c-3.46289,-4.72536 -12.3208,-2.25938 -17.46973,-3.55611c-1.10742,-0.27839 -1.90723,-0.56265 -2.90039,-1.06376c-10.83252,-5.84333 -3.08789,-24.47372 6.2959,-27.23421c2.39502,-0.6828 4.96289,-0.37656 7.12939,0.84983c5.47559,3.03156 9.41309,10.24195 10.92773,15.98272c2.21484,8.29906 1.71826,18.52782 -3.21094,25.81001c-2.43018,3.58981 -3.02344,9.52545 -1.97021,13.6867c1.2832,5.07262 7.12207,6.54225 11.65283,5.01841c5.52246,-1.85645 10.07373,-4.80156 14.99414,-7.87561c6.00732,-3.74073 11.88574,-7.68513 17.625,-11.82586c3.35742,-2.40591 10.48389,-7.04629 12.38525,-10.61851c-1.5293,-5.15761 -15.24756,-11.23538 -19.77832,-14.18635c-3.70459,-1.98539 -6.81006,-4.31217 -10.15283,-6.79573c-5.4375,-4.03964 -8.42139,-10.70643 -13.48975,-14.73727c-0.09375,-3.31435 0.32813,-8.35195 0.78223,-11.65824c0.34131,0.10008 0.67676,0.21422 1.00781,0.34213c2.34229,0.89877 14.93994,7.05669 15.85254,9.07724c-0.22266,1.68208 -4.31104,1.34948 -5.63672,1.32896c3.76904,5.20596 14.83447,11.74674 20.90186,14.24789c3.73975,1.54142 12.75146,-0.84251 16.42969,-2.89969c7.26123,-4.06455 9.375,-13.47718 3.1875,-19.67334c-6.48193,-6.05198 -16.19092,-10.69471 -24.03076,-14.84365c-7.55273,-3.98879 -15.13184,-7.92513 -22.73877,-11.80843l-54.61523,-28.12097l-10.94824,-5.69549c-2.21191,-1.12823 -4.44434,-2.19154 -6.65918,-3.33618c-1.35059,-0.65745 -1.99512,-1.20383 -1.28174,-2.76049c0.70313,-1.53629 1.49707,-2.63624 3.07471,-3.32578z" fill="#5b2d44"/><path d="M198.45703,167.04929c3.38965,-0.31942 5.60156,2.21543 7.41064,4.71511l-2.9502,-0.07326c-1.66113,-0.01905 -6.73828,0.22858 -7.5791,-1.70846c-0.65918,-1.51505 1.95557,-2.57441 3.11865,-2.93339z" fill="#ffffff"/><path d="M168.35889,88.9942c0.21387,0.13509 0.41895,0.28704 0.5918,0.47298c1.48242,1.59065 8.60303,20.18206 9.48779,23.06549c0.33398,1.08705 0.91846,2.86921 0.6958,4.01766c-0.07178,0.3729 -0.16113,0.42374 -0.44092,0.64074c-1.17334,-0.05172 -3.91113,-3.1501 -4.88086,-4.13385c1.23779,10.23741 2.24561,20.74867 3.39111,31.02271c0.62988,5.4716 1.21289,10.94717 1.75049,16.42712c0.35889,3.70263 0.80859,7.5767 0.7998,11.28959c-0.03809,15.98418 -4.94238,33.62407 -17.80811,44.04918c-6.17725,5.00669 -14.97803,6.3547 -22.50688,8.09539c-1.70859,0.35312 -8.60127,2.33118 -9.68965,1.58684c-0.50435,-1.47109 3.13975,-3.32021 4.28804,-4.03524c13.30693,-8.29759 37.48418,-18.56445 38.6458,-36.66149c0.28711,-4.4499 -0.73389,-12.7768 -1.11914,-17.09483c-1.09717,-11.55626 -2.30273,-23.10212 -3.61523,-34.63582l-1.6333,-16.46068c-0.56396,-5.81681 -0.59033,-10.71522 -2.53711,-16.20558c0.77197,-2.74613 3.27832,-9.01804 4.58057,-11.44021z" fill="#5b2d44"/><path d="M107.60083,102.15401c1.04077,0.51107 4.19355,2.9939 5.07012,3.77458c2.15962,1.92326 11.31387,8.64456 11.58911,11.27274c-0.66621,1.56736 -4.50234,0.07546 -5.76504,-0.33187c8.01812,13.3327 18.1251,21.58956 28.61924,32.24544c4.14697,4.15832 8.01563,8.58478 11.58105,13.25153c6.91113,9.06391 9.16992,17.31461 7.66113,28.59687c-0.16113,1.17218 -0.70312,5.46384 -1.75635,6.03381c-0.90527,-0.62712 -1.90723,-8.5584 -2.44189,-10.32254c-3.79102,-12.48668 -13.73584,-21.84217 -22.69849,-30.81816c-5.76577,-5.77447 -11.43662,-11.28812 -16.67944,-17.55945c-2.89189,-3.44915 -5.58252,-7.0624 -8.05825,-10.82174c-2.81309,-4.35217 -4.78608,-9.47109 -8.73105,-12.91936c0.16787,-2.87815 1.08926,-9.55139 1.60986,-12.40184z" fill="#5b2d44"/><path d="M83.31606,246.51892c1.36479,0.04835 9.88096,6.05726 10.81948,7.31149c-0.10649,0.36924 -0.23379,0.73115 -0.38115,1.08573c-0.66445,1.61468 -3.68027,7.72762 -5.07729,8.30785c-0.98701,-0.13334 -7.9585,-5.00962 -9.37529,-5.95029c-0.95918,1.76853 -2.67187,6.05726 -4.13833,7.06387c-1.89932,-0.62272 -8.6083,-5.70121 -10.30063,-7.2353c-0.75835,-0.68719 3.92754,-9.07123 5.13999,-9.73205c1.5479,0.33407 7.75811,5.04771 9.36387,6.31074c1.37124,-2.22568 2.33203,-5.31732 3.94937,-7.16204z" fill="#5b2d44"/><path d="M112.93535,235.13409l0.19761,0.0674c2.57505,0.86009 8.87651,5.11072 10.57617,7.33494c-0.802,2.5495 -3.16743,7.53567 -5.03188,9.36574c-1.02905,-0.12601 -3.83174,-2.26671 -4.8791,-2.96269c-1.29976,-0.86595 -5.18965,-2.82496 -5.61006,-4.15685c0.15396,-1.5678 3.75044,-8.1833 4.74727,-9.64853z" fill="#5b2d44"/><path d="M219.89355,122.23409l0.10107,0.06125l0.06152,0.25876c-0.35596,1.20486 -0.88184,2.71932 -1.61572,3.74102c-1.59521,0.83591 -4.74023,2.09528 -6.58887,2.94702c-5.74658,2.67448 -11.51807,5.29402 -17.31592,7.85817c-3.13184,1.39534 -6.14648,3.1961 -9.32959,4.62163l-0.18164,-0.0296l-0.15381,-0.21744c0.07617,-0.63518 1.02979,-3.26819 1.40186,-3.77253c1.42236,-1.93498 5.95752,-3.62131 8.08447,-4.57195l9.32959,-4.15524l8.80225,-3.90308c2.17822,-0.96002 5.12988,-2.36825 7.40479,-2.838z" fill="#5b2d44"/><path d="M139.86665,166.21411c0.81724,0.26814 0.14971,1.34508 -0.06987,2.06744c-1.53296,5.04478 -5.74189,14.17902 -1.1647,18.54247c1.79297,1.70992 4.04268,-3.58688 4.97344,-3.81106c0.87012,1.2894 -0.74883,5.6089 -1.34766,6.91881c-1.35132,2.62423 -3.96416,4.55686 -6.73022,2.17147c-2.52861,-2.18173 -2.33291,-8.31957 -1.6292,-11.30131c0.91084,-3.85941 3.33486,-11.67494 5.96821,-14.58782z" fill="#5b2d44"/><path d="M148.83398,102.63182c0.15527,0.04909 0.05566,0.00571 0.25635,0.19605c-0.17285,1.33834 -2.2002,6.21667 -2.63467,8.17261c-0.77915,3.50541 -2.03115,7.80117 -0.20874,11.31084c0.32095,0.61833 1.04897,1.14815 1.70083,1.24251c2.07861,0.30066 2.80225,-2.97398 4.2085,-4.02059l0.18896,0.21773c0.2124,2.00722 -0.71045,5.06735 -1.52637,6.89888c-1.42383,2.63814 -3.67236,3.98088 -6.37046,1.88663c-1.49312,-1.19475 -2.14585,-3.6493 -2.27271,-5.4634c-0.40063,-5.72758 2.95957,-16.1455 6.6583,-20.44126z" fill="#5b2d44"/><path d="M236.69385,176.28463c3.99023,-0.30037 5.36426,2.60811 4.83252,6.11294c-0.79834,5.2675 -4.40332,10.00898 -8.56641,13.16069c-0.76172,0.5773 -2.91064,2.19052 -3.84961,2.05865l-0.04248,-0.28425c0.20947,-0.67401 0.56982,-0.92016 1.08398,-1.41395c2.39941,-2.44986 7.40918,-7.47267 7.54248,-11.04636c0.02783,-0.73701 -0.36475,-1.56193 -0.94189,-2.05279c-1.97461,-1.68062 -4.06494,1.0535 -4.99805,1.11064l-0.26807,-0.36924c-0.22412,-1.21028 0.68555,-3.40666 1.31543,-4.46162c0.98145,-1.64545 2.12402,-2.34876 3.89209,-2.8147z" fill="#5b2d44"/></g></svg></svg>